# xmcd
#
# Track frame offsets:
#	150
#	19359
#	40465
#	59702
#	79218
#	105612
#	120342
#	142896
#	164316
#	185493
#	197209
#	219463
#	238067
#	251156
#	270465
#
# Disc length: 3841 seconds
#
# Revision: 0
# Processed by: cddbd v1.5.2PL0 Copyright (c) Steve Scherf et al.
# Submitted via: audiograbber 1.83.01
#
DISCID=dd0eff0f
DTITLE=Louis Armstrong - The Silver Collection
DYEAR=1984
DGENRE=Jazz
TTITLE0=Top Hat, White Tie And Tails
TTITLE1=Have You Met Miss Jones
TTITLE2=I Only Have Eyes For You
TTITLE3=Stormy Weather
TTITLE4=Home
TTITLE5=East Of The Sun (And West Of The Moon)
TTITLE6=You're Blase
TTITLE7=Body And Soul
TTITLE8=When Your Lover Has Gone
TTITLE9=You're The Top
TTITLE10=Nobody Knows The Trouble I've Seen
TTITLE11=We'll Be Together Again
TTITLE12=I've Got The World On A String
TTITLE13=Do Nothin' Till You Hear From Me
TTITLE14=I Gotta Right To Sing The Blues
EXTD=[Catégorie: Blues]\n[Enregistrement: 1958, 59] YEAR: 1957
EXTT0=
EXTT1=
EXTT2=
EXTT3=
EXTT4=
EXTT5=
EXTT6=
EXTT7=
EXTT8=
EXTT9=
EXTT10=
EXTT11=
EXTT12=
EXTT13=
EXTT14=
PLAYORDER=
